<?xml version="1.0" encoding="UTF-8" standalone="no"?>
<svg
   id="svg"
   class="path"
   version="1.1"
   sodipodi:docname="waves-3.svg"
   width="4096"
   height="2160"
   inkscape:version="1.1.2 (0a00cf5339, 2022-02-04)"
   xmlns:inkscape="http://www.inkscape.org/namespaces/inkscape"
   xmlns:sodipodi="http://sodipodi.sourceforge.net/DTD/sodipodi-0.dtd"
   xmlns="http://www.w3.org/2000/svg"
   xmlns:svg="http://www.w3.org/2000/svg">
  <defs
     id="defs55" />
  <sodipodi:namedview
     id="namedview53"
     pagecolor="#505050"
     bordercolor="#ffffff"
     borderopacity="1"
     inkscape:pageshadow="0"
     inkscape:pageopacity="0"
     inkscape:pagecheckerboard="1"
     showgrid="false"
     width="4096px"
     borderlayer="true"
     inkscape:showpageshadow="false"
     inkscape:current-layer="svg" />
  <rect
     style="fill:#f4915c;stroke-width:2;stroke-linecap:round;-inkscape-stroke:none;stop-color:#000000;fill-opacity:1;stroke:none;stroke-opacity:1"
     id="rect79"
     width="4653.8887"
     height="2335.1194"
     x="-433.15823"
     y="-296.42926" />
  <path
     fill="#5461f3"
     stroke="#5461f3"
     d="M -52.329455,3136.5489 V 65.867935 c 278.222305,0 278.222305,-141.437426 556.444605,-141.437426 278.22231,0 278.22231,282.874851 556.44465,282.874851 278.2223,0 278.2223,-282.874851 556.4446,-282.874851 278.2223,0 278.2223,282.874851 556.4446,282.874851 278.2223,0 278.2223,-282.874851 556.4446,-282.874851 278.2223,0 278.2223,282.874851 556.4446,282.874851 278.2223,0 278.2223,-282.874851 556.4446,-282.874851 L 4525.7767,65.867935 V 3136.5489 Z"
     id="path2"
     style="stroke-width:1.86102;fill:#f38c54;fill-opacity:1;stroke:none;stroke-opacity:1" />
  <path
     fill="#6759e6"
     stroke="#6759e6"
     d="m -52.329455,3136.5489 -29.7763,-2973.90799 c 278.222305,0 278.222305,-141.437425 556.444605,-141.437425 278.22231,0 278.22231,282.874855 556.44465,282.874855 278.2223,0 278.2223,-282.874855 556.4446,-282.874855 278.2223,0 278.2223,282.874855 556.4446,282.874855 278.2223,0 278.2223,-282.874855 556.4446,-282.874855 278.2223,0 278.2223,282.874855 556.4446,282.874855 278.2223,0 278.2223,-282.874855 556.4446,-282.874855 L 4525.7767,162.64091 V 3136.5489 Z"
     id="path4"
     style="stroke-width:1.86102;fill:#e68a59;fill-opacity:1;stroke:none;stroke-opacity:1" />
  <path
     fill="#7550d9"
     stroke="#7550d9"
     d="M -52.329455,3136.5489 -111.88205,261.2749 c 278.2223,0 278.2223,-141.43742 556.4446,-141.43742 278.22231,0 278.22231,282.87485 556.44465,282.87485 278.2223,0 278.2223,-282.87485 556.4446,-282.87485 278.2223,0 278.2223,282.87485 556.4446,282.87485 278.2223,0 278.2223,-282.87485 556.4446,-282.87485 278.2223,0 278.2223,282.87485 556.4446,282.87485 278.2223,0 278.2223,-282.87485 556.4446,-282.87485 278.2223,0 278.2223,282.87485 556.4446,282.87485 L 4525.7767,261.2749 v 2875.274 z"
     id="path6"
     style="stroke-width:1.86102;fill:#d98050;fill-opacity:1;stroke:none;stroke-opacity:1" />
  <path
     fill="#7f48cc"
     stroke="#7f48cc"
     d="m -52.329455,3136.5489 -89.328905,-2776.64 c 278.22231,0 278.22231,-141.43743 556.44461,-141.43743 278.22231,0 278.22231,282.87485 556.44461,282.87485 278.22234,0 278.22234,-282.87485 556.44464,-282.87485 278.2223,0 278.2223,282.87485 556.4446,282.87485 278.2223,0 278.2223,-282.87485 556.4446,-282.87485 278.2223,0 278.2223,282.87485 556.4446,282.87485 278.2223,0 278.2223,-282.87485 556.4446,-282.87485 278.2223,0 278.2223,282.87485 556.4446,282.87485 L 4525.7767,359.9089 v 2776.64 z"
     id="path8"
     style="stroke-width:1.86102;fill:#cc7648;fill-opacity:1;stroke:none;stroke-opacity:1" />
  <path
     fill="#8740bf"
     stroke="#8740bf"
     d="M -52.329455,3136.5489 -171.43466,458.54289 c 278.22231,0 278.22231,-141.43742 556.44461,-141.43742 278.22231,0 278.22231,282.87485 556.44461,282.87485 278.22234,0 278.22234,-282.87485 556.44464,-282.87485 278.2223,0 278.2223,282.87485 556.4446,282.87485 278.2223,0 278.2223,-282.87485 556.4446,-282.87485 278.2223,0 278.2223,282.87485 556.4446,282.87485 278.2223,0 278.2223,-282.87485 556.4446,-282.87485 278.2223,0 278.2223,282.87485 556.4446,282.87485 L 4525.7767,458.54289 V 3136.5489 Z"
     id="path10"
     style="stroke-width:1.86102;fill:#bf6c40;fill-opacity:1;stroke:none;stroke-opacity:1" />
  <path
     fill="#8c38b2"
     stroke="#8c38b2"
     d="M -52.329455,3136.5489 -201.21096,555.31587 c 278.222309,0 278.222309,-141.43743 556.44461,-141.43743 278.22231,0 278.22231,282.87485 556.44461,282.87485 278.22234,0 278.22234,-282.87485 556.44464,-282.87485 278.2223,0 278.2223,282.87485 556.4446,282.87485 278.2223,0 278.2223,-282.87485 556.4446,-282.87485 278.2223,0 278.2223,282.87485 556.4446,282.87485 278.2223,0 278.2223,-282.87485 556.4446,-282.87485 278.2223,0 278.2223,282.87485 556.4446,282.87485 L 4525.7767,555.31587 V 3136.5489 Z"
     id="path12"
     style="stroke-width:1.86102;fill:#b26338;fill-opacity:1;stroke:none;stroke-opacity:1" />
  <path
     fill="#9030a5"
     stroke="#9030a5"
     d="M -52.329455,3136.5489 -230.98726,653.94986 c 278.222309,0 278.222309,-141.43742 556.44461,-141.43742 278.22231,0 278.22231,282.87485 556.44461,282.87485 278.22234,0 278.22234,-282.87485 556.44464,-282.87485 278.2223,0 278.2223,282.87485 556.4446,282.87485 278.2223,0 278.2223,-282.87485 556.4446,-282.87485 278.2223,0 278.2223,282.87485 556.4446,282.87485 278.2223,0 278.2223,-282.87485 556.4446,-282.87485 278.2223,0 278.2223,282.87485 556.4446,282.87485 L 4525.7767,653.94986 V 3136.5489 Z"
     id="path14"
     style="stroke-width:1.86102;fill:#a55930;fill-opacity:1;stroke:none;stroke-opacity:1" />
  <path
     fill="#922899"
     stroke="#922899"
     d="M -52.329455,3136.5489 -260.76356,752.58386 c 278.222309,0 278.222309,-141.43743 556.44461,-141.43743 278.22231,0 278.22231,282.87485 556.44461,282.87485 278.22234,0 278.22234,-282.87485 556.44464,-282.87485 278.2223,0 278.2223,282.87485 556.4446,282.87485 278.2223,0 278.2223,-282.87485 556.4446,-282.87485 278.2223,0 278.2223,282.87485 556.4446,282.87485 278.2223,0 278.2223,-282.87485 556.4446,-282.87485 278.2223,0 278.2223,282.87485 556.4446,282.87485 L 4525.7767,752.58386 V 3136.5489 Z"
     id="path16"
     style="stroke-width:1.86102;fill:#995028;fill-opacity:1;stroke:none;stroke-opacity:1" />
  <path
     fill="#92208c"
     stroke="#92208c"
     d="M -52.329455,3136.5489 -290.53986,851.21785 c 278.222309,0 278.222309,-141.43742 556.44461,-141.43742 278.22231,0 278.22231,282.87485 556.44461,282.87485 278.22234,0 278.22234,-282.87485 556.44464,-282.87485 278.2223,0 278.2223,282.87485 556.4446,282.87485 278.2223,0 278.2223,-282.87485 556.4446,-282.87485 278.2223,0 278.2223,282.87485 556.4446,282.87485 278.2223,0 278.2223,-282.87485 556.4446,-282.87485 278.2223,0 278.2223,282.87485 556.4446,282.87485 L 4525.7767,851.21785 V 3136.5489 Z"
     id="path18"
     style="stroke-width:1.86102;fill:#924820;fill-opacity:1;stroke:none;stroke-opacity:1" />
  <path
     fill="#921880"
     stroke="#921880"
     d="M -52.329455,3136.5489 -320.31616,947.99083 c 278.222309,0 278.222309,-141.43743 556.44461,-141.43743 278.22231,0 278.22231,282.8749 556.44461,282.8749 278.22234,0 278.22234,-282.8749 556.44464,-282.8749 278.2223,0 278.2223,282.8749 556.4446,282.8749 278.2223,0 278.2223,-282.8749 556.4446,-282.8749 278.2223,0 278.2223,282.8749 556.4446,282.8749 278.2223,0 278.2223,-282.8749 556.4446,-282.8749 278.2223,0 278.2223,282.8749 556.4446,282.8749 l 394.536,-141.43747 V 3136.5489 Z"
     id="path20"
     style="stroke-width:1.86102;fill:#924318;fill-opacity:1;stroke:none;stroke-opacity:1" />
  <path
     fill="#901075"
     stroke="#901075"
     d="M -52.329455,3136.5489 -350.09246,1046.6248 c 278.222308,0 278.222308,-141.4374 556.44461,-141.4374 278.22231,0 278.22231,282.8748 556.44461,282.8748 278.22234,0 278.22234,-282.8748 556.44464,-282.8748 278.2223,0 278.2223,282.8748 556.4446,282.8748 278.2223,0 278.2223,-282.8748 556.4446,-282.8748 278.2223,0 278.2223,282.8748 556.4446,282.8748 278.2223,0 278.2223,-282.8748 556.4446,-282.8748 278.2223,0 278.2223,282.8748 556.4446,282.8748 l 424.3123,-141.4374 v 2089.9241 z"
     id="path22"
     style="stroke-width:1.86102;fill:#903d10;fill-opacity:1;stroke:none;stroke-opacity:1" />
  <path
     fill="#8e076a"
     stroke="#8e076a"
     d="M -52.329455,3136.5489 -379.86876,1145.2588 c 278.22231,0 278.22231,-141.4374 556.44461,-141.4374 278.22231,0 278.22231,282.8748 556.44461,282.8748 278.22234,0 278.22234,-282.8748 556.44464,-282.8748 278.2223,0 278.2223,282.8748 556.4446,282.8748 278.2223,0 278.2223,-282.8748 556.4446,-282.8748 278.2223,0 278.2223,282.8748 556.4446,282.8748 278.2223,0 278.2223,-282.8748 556.4446,-282.8748 278.2223,0 278.2223,282.8748 556.4446,282.8748 l 454.0886,-141.4374 v 1991.2901 z"
     id="path24"
     style="stroke-width:1.86102;fill:#8e3607;fill-opacity:1;stroke:none;stroke-opacity:1" />
  <path
     fill="#8b005f"
     stroke="#8b005f"
     d="M -52.329455,3136.5489 -409.64506,1243.8928 c 278.22231,0 278.22231,-141.4374 556.44461,-141.4374 278.22231,0 278.22231,282.8748 556.44461,282.8748 278.22231,0 278.22231,-282.8748 556.44464,-282.8748 278.2223,0 278.2223,282.8748 556.4446,282.8748 278.2223,0 278.2223,-282.8748 556.4446,-282.8748 278.2223,0 278.2223,282.8748 556.4446,282.8748 278.2223,0 278.2223,-282.8748 556.4446,-282.8748 278.2223,0 278.2223,282.8748 556.4446,282.8748 l 483.8649,-141.4374 v 1892.6561 z"
     id="path26"
     style="stroke-width:1.86102;fill:#8b3100;fill-opacity:1;stroke:none;stroke-opacity:1" />
  <path
     fill="#870055"
     stroke="#870055"
     d="M -52.329455,3136.5489 -439.42136,1340.6658 c 278.22231,0 278.22231,-141.4374 556.44461,-141.4374 278.22231,0 278.22231,282.8748 556.44461,282.8748 278.22231,0 278.22231,-282.8748 556.44464,-282.8748 278.2223,0 278.2223,282.8748 556.4446,282.8748 278.2223,0 278.2223,-282.8748 556.4446,-282.8748 278.2223,0 278.2223,282.8748 556.4446,282.8748 278.2223,0 278.2223,-282.8748 556.4446,-282.8748 278.2223,0 278.2223,282.8748 556.4446,282.8748 l 513.6412,-141.4374 v 1795.8831 z"
     id="path28"
     style="stroke-width:1.86102;fill:#872f00;fill-opacity:1;stroke:none;stroke-opacity:1" />
  <path
     fill="#83004b"
     stroke="#83004b"
     d="M -52.329455,3136.5489 -469.19766,1439.2998 c 278.22231,0 278.22231,-141.4374 556.444612,-141.4374 278.222308,0 278.222308,282.8748 556.444608,282.8748 278.22231,0 278.22231,-282.8748 556.44464,-282.8748 278.2223,0 278.2223,282.8748 556.4446,282.8748 278.2223,0 278.2223,-282.8748 556.4446,-282.8748 278.2223,0 278.2223,282.8748 556.4446,282.8748 278.2223,0 278.2223,-282.8748 556.4446,-282.8748 278.2223,0 278.2223,282.8748 556.4446,282.8748 l 543.4175,-141.4374 v 1697.2491 z"
     id="path30"
     style="stroke-width:1.86102;fill:#832e00;fill-opacity:1;stroke:none;stroke-opacity:1" />
  <path
     fill="#7d0042"
     stroke="#7d0042"
     d="M -52.329455,3136.5489 -498.97396,1537.9338 c 278.22231,0 278.22231,-141.4375 556.444612,-141.4375 278.222308,0 278.222308,282.8749 556.444608,282.8749 278.22231,0 278.22231,-282.8749 556.44464,-282.8749 278.2223,0 278.2223,282.8749 556.4446,282.8749 278.2223,0 278.2223,-282.8749 556.4446,-282.8749 278.2223,0 278.2223,282.8749 556.4446,282.8749 278.2223,0 278.2223,-282.8749 556.4446,-282.8749 278.2223,0 278.2223,282.8749 556.4446,282.8749 l 573.1938,-141.4374 v 1598.6151 z"
     id="path32"
     style="stroke-width:1.86102;fill:#7d2c00;fill-opacity:1;stroke:none;stroke-opacity:1" />
  <path
     fill="#78003a"
     stroke="#78003a"
     d="M -52.329455,3136.5489 -528.75026,1636.5678 c 278.22231,0 278.22231,-141.4375 556.444612,-141.4375 278.222308,0 278.222308,282.8749 556.444608,282.8749 278.22231,0 278.22231,-282.8749 556.44464,-282.8749 278.2223,0 278.2223,282.8749 556.4446,282.8749 278.2223,0 278.2223,-282.8749 556.4446,-282.8749 278.2223,0 278.2223,282.8749 556.4446,282.8749 278.2223,0 278.2223,-282.8749 556.4446,-282.8749 278.2223,0 278.2223,282.8749 556.4446,282.8749 l 602.9701,-141.4374 v 1499.9811 z"
     id="path34"
     style="stroke-width:1.86102;fill:#782a00;fill-opacity:1;stroke:none;stroke-opacity:1" />
  <path
     fill="#720032"
     stroke="#720032"
     d="M -52.329455,3136.5489 -558.52656,1733.3407 c 278.22231,0 278.22231,-141.4374 556.4446119,-141.4374 278.2223081,0 278.2223081,282.8749 556.4446081,282.8749 278.22231,0 278.22231,-282.8749 556.44464,-282.8749 278.2223,0 278.2223,282.8749 556.4446,282.8749 278.2223,0 278.2223,-282.8749 556.4446,-282.8749 278.2223,0 278.2223,282.8749 556.4446,282.8749 278.2223,0 278.2223,-282.8749 556.4446,-282.8749 278.2223,0 278.2223,282.8749 556.4446,282.8749 l 632.7464,-141.4375 v 1403.2082 z"
     id="path36"
     style="stroke-width:1.86102;fill:#722800;fill-opacity:1;stroke:none;stroke-opacity:1" />
  <path
     fill="#6c002a"
     stroke="#6c002a"
     d="M -52.329455,3136.5489 -588.30286,1831.9747 c 278.22231,0 278.22231,-141.4374 556.444612,-141.4374 278.222308,0 278.222308,282.8749 556.444608,282.8749 278.22231,0 278.22231,-282.8749 556.44464,-282.8749 278.2223,0 278.2223,282.8749 556.4446,282.8749 278.2223,0 278.2223,-282.8749 556.4446,-282.8749 278.2223,0 278.2223,282.8749 556.4446,282.8749 278.2223,0 278.2223,-282.8749 556.4446,-282.8749 278.2223,0 278.2223,282.8749 556.4446,282.8749 l 662.5227,-141.4375 v 1304.5742 z"
     id="path38"
     style="stroke-width:1.86102;fill:#6c2600;fill-opacity:1;stroke:none;stroke-opacity:1" />
  <path
     fill="#650123"
     stroke="#650123"
     d="M -52.329455,3136.5489 -618.07916,1930.6087 c 278.22231,0 278.22231,-141.4374 556.444612,-141.4374 278.222308,0 278.222308,282.8749 556.444608,282.8749 278.22231,0 278.22231,-282.8749 556.44464,-282.8749 278.2223,0 278.2223,282.8749 556.4446,282.8749 278.2223,0 278.2223,-282.8749 556.4446,-282.8749 278.2223,0 278.2223,282.8749 556.4446,282.8749 278.2223,0 278.2223,-282.8749 556.4446,-282.8749 278.2223,0 278.2223,282.8749 556.4446,282.8749 l 692.299,-141.4375 v 1205.9402 z"
     id="path40"
     style="stroke-width:1.86102;fill:#652401;fill-opacity:1;stroke:none;stroke-opacity:1" />
  <path
     fill="#5f031d"
     stroke="#5f031d"
     d="M -52.329455,3136.5489 -647.85546,2029.2427 c 278.22231,0 278.22231,-141.4374 556.444611,-141.4374 278.222309,0 278.222309,282.8749 556.444609,282.8749 278.22231,0 278.22231,-282.8749 556.44464,-282.8749 278.2223,0 278.2223,282.8749 556.4446,282.8749 278.2223,0 278.2223,-282.8749 556.4446,-282.8749 278.2223,0 278.2223,282.8749 556.4446,282.8749 278.2223,0 278.2223,-282.8749 556.4446,-282.8749 278.2223,0 278.2223,282.8749 556.4446,282.8749 278.2223,0 278.2223,-282.8749 556.4446,-282.8749 l 165.6307,141.4374 v 1107.3062 z"
     id="path42"
     style="stroke-width:1.86102;fill:#5f2303;fill-opacity:1;stroke:none;stroke-opacity:1" />
  <path
     fill="#580518"
     stroke="#580518"
     d="M -52.329455,3136.5489 -677.63176,2126.0157 c 278.22231,0 278.22231,-141.4374 556.44461,-141.4374 278.22231,0 278.22231,282.8748 556.44461,282.8748 278.2223,0 278.2223,-282.8748 556.44461,-282.8748 278.22233,0 278.22233,282.8748 556.44463,282.8748 278.2223,0 278.2223,-282.8748 556.4446,-282.8748 278.2223,0 278.2223,282.8748 556.4446,282.8748 278.2223,0 278.2223,-282.8748 556.4446,-282.8748 278.2223,0 278.2223,282.8748 556.4446,282.8748 278.2223,0 278.2223,-282.8748 556.4446,-282.8748 l 195.407,141.4374 v 1010.5332 z"
     id="path44"
     style="stroke-width:1.86102;fill:#582205;fill-opacity:1;stroke:none;stroke-opacity:1" />
  <path
     fill="#510712"
     stroke="#510712"
     d="M -52.329455,3136.5489 -707.40806,2224.6497 c 278.22231,0 278.22231,-141.4374 556.44461,-141.4374 278.22231,0 278.22231,282.8748 556.44461,282.8748 278.2223,0 278.2223,-282.8748 556.44461,-282.8748 278.22233,0 278.22233,282.8748 556.44463,282.8748 278.2223,0 278.2223,-282.8748 556.4446,-282.8748 278.2223,0 278.2223,282.8748 556.4446,282.8748 278.2223,0 278.2223,-282.8748 556.4446,-282.8748 278.2223,0 278.2223,282.8748 556.4446,282.8748 278.2223,0 278.2223,-282.8748 556.4446,-282.8748 l 225.1833,141.4374 v 911.8992 z"
     id="path46"
     style="stroke-width:1.86102;fill:#512107;fill-opacity:1;stroke:none;stroke-opacity:1" />
  <path
     fill="#4b090c"
     stroke="#4b090c"
     d="M -52.329455,3136.5489 -737.18436,2323.2837 c 278.22231,0 278.22231,-141.4374 556.44461,-141.4374 278.222306,0 278.222306,282.8748 556.44461,282.8748 278.2223,0 278.2223,-282.8748 556.44461,-282.8748 278.22233,0 278.22233,282.8748 556.44463,282.8748 278.2223,0 278.2223,-282.8748 556.4446,-282.8748 278.2223,0 278.2223,282.8748 556.4446,282.8748 278.2223,0 278.2223,-282.8748 556.4446,-282.8748 278.2223,0 278.2223,282.8748 556.4446,282.8748 278.2223,0 278.2223,-282.8748 556.4446,-282.8748 l 254.9596,141.4374 v 813.2652 z"
     id="path48"
     style="stroke-width:1.86102;fill:#4b2009;fill-opacity:1;stroke:none;stroke-opacity:1" />
  <path
     fill="#440a04"
     stroke="#440a04"
     d="M -52.329455,3136.5489 -766.96066,2421.9177 c 278.22231,0 278.22231,-141.4374 556.44461,-141.4374 278.222305,0 278.222305,282.8748 556.44461,282.8748 278.2223,0 278.2223,-282.8748 556.44461,-282.8748 278.22233,0 278.22233,282.8748 556.44463,282.8748 278.2223,0 278.2223,-282.8748 556.4446,-282.8748 278.2223,0 278.2223,282.8748 556.4446,282.8748 278.2223,0 278.2223,-282.8748 556.4446,-282.8748 278.2223,0 278.2223,282.8748 556.4446,282.8748 278.2223,0 278.2223,-282.8748 556.4446,-282.8748 l 284.7359,141.4374 v 714.6312 z"
     id="path50"
     style="stroke-width:1.86102;fill:#441a04;fill-opacity:1;stroke:none;stroke-opacity:1" />
</svg>
