<?xml version="1.0" encoding="UTF-8" standalone="no"?>
<svg
   inkscape:version="1.1.2 (0a00cf5339, 2022-02-04)"
   height="2160"
   width="4096"
   sodipodi:docname="waves-4.svg"
   version="1.1"
   class="path"
   id="svg"
   xmlns:inkscape="http://www.inkscape.org/namespaces/inkscape"
   xmlns:sodipodi="http://sodipodi.sourceforge.net/DTD/sodipodi-0.dtd"
   xmlns="http://www.w3.org/2000/svg"
   xmlns:svg="http://www.w3.org/2000/svg">
  <defs
     id="defs55" />
  <sodipodi:namedview
     id="namedview53"
     pagecolor="#505050"
     bordercolor="#ffffff"
     borderopacity="1"
     inkscape:pageshadow="0"
     inkscape:pageopacity="0"
     inkscape:pagecheckerboard="1"
     showgrid="false"
     width="4096px"
     borderlayer="true"
     inkscape:showpageshadow="false"
     inkscape:current-layer="svg" />
  <rect
     style="fill:#8ff0a4;fill-opacity:1;stroke:none;stroke-width:2;stroke-linecap:round;stroke-opacity:1;-inkscape-stroke:none;stop-color:#000000"
     id="rect4190"
     width="5330.1851"
     height="3118.145"
     x="-1003.5737"
     y="-496.16617" />
  <path
     fill="#7550d9"
     stroke="#7550d9"
     d="M -395.85496,3092.0594 -460.82243,-44.650882 c 303.51986,0 303.51986,-154.297708 607.03971,-154.297708 303.51986,0 303.51986,308.59543 607.03971,308.59543 303.51981,0 303.51981,-308.59543 607.03971,-308.59543 303.5199,0 303.5199,308.59543 607.0397,308.59543 303.5199,0 303.5199,-308.59543 607.0397,-308.59543 303.5199,0 303.5199,308.59543 607.0397,308.59543 303.5199,0 303.5199,-308.59543 607.0397,-308.59543 303.5199,0 303.5199,308.59543 607.0398,308.59543 L 4598.5186,-44.650882 V 3092.0594 Z"
     id="path1863"
     style="fill:#8ff0a4;fill-opacity:1;stroke:none;stroke-width:2.03023;stroke-opacity:1" />
  <path
     fill="#440a04"
     stroke="#440a04"
     d="m -395.85496,3092.0594 -779.60954,-779.6096 c 303.51985,0 303.51985,-154.2977 607.03971,-154.2977 303.51985,0 303.51985,308.5954 607.039709,308.5954 303.519851,0 303.519851,-308.5954 607.039711,-308.5954 303.51982,0 303.51982,308.5954 607.03967,308.5954 303.5199,0 303.5199,-308.5954 607.0397,-308.5954 303.5199,0 303.5199,308.5954 607.0398,308.5954 303.5198,0 303.5198,-308.5954 607.0397,-308.5954 303.5198,0 303.5198,308.5954 607.0397,308.5954 303.5198,0 303.5198,-308.5954 607.0397,-308.5954 l 310.6257,154.2977 v 779.6096 z"
     id="path1865"
     style="fill:#165f3e;fill-opacity:1;stroke:none;stroke-width:2.03023;stroke-opacity:1" />
  <g
     id="g4044"
     transform="matrix(1.0909257,0,0,1.0909257,6118.8309,-329.68238)">
    <path
       style="opacity:1;fill:#8ff0a4;fill-opacity:1;stroke:none;stroke-width:1.86102px;stroke-opacity:1"
       d="m -5971.7,3136.55 c 0,0 -12.79,-617.23 -26.51,-1279.73 -5.16,-248.97 -10.45,-504.32 -15.24,-735.72 -8,-386.4 -14.62,-705.996 -16.93,-817.457 -0.57,-27.535 -0.88,-42.368 -0.88,-42.368 278.23,0 278.23,-141.438 556.45,-141.438 79.16,0 135.8,22.903 182.73,55.674 118.02,82.402 174.65,227.201 373.71,227.201 159.46,0 227.53,-92.918 308.96,-172.246 60.65,-59.084 128.72,-110.629 247.49,-110.629 237.74,0 272.33,206.549 450.96,266.653 30.41,10.234 65,16.222 105.48,16.222 278.22,0 278.22,-282.875 556.45,-282.875 23.36,0 44.75,1.995 64.52,5.648 215.66,39.86 237.06,277.227 491.92,277.227 98.98,0 162.75,-35.804 216.36,-81.936 97.08,-83.536 160.85,-200.939 340.09,-200.939 179.4,0 243.12,117.614 340.34,201.164 53.56,46.024 117.28,81.711 216.1,81.711 l 186.1,-141.437 c 0,0 0,135.345 0,347.306 0,114.844 0,252.18 0,402.669 0,276.61 0,597.64 0,905.1 0,639.48 0,1220.2 0,1220.2 z"
       id="path4000" />
    <path
       style="opacity:1;fill:#8eefa3;fill-opacity:1;stroke:none;stroke-width:1.86102px;stroke-opacity:1"
       d="m -5971.7,3136.55 c 0,0 -14.38,-617.45 -28.07,-1278.45 -4.51,-248.4 -9.79,-503.5 -13.94,-734.37 -7.36,-385.525 -13.96,-703.755 -15.63,-814.963 -0.55,-27.473 -0.83,-42.273 -0.8,-42.275 278.02,-0.038 278.13,-141.515 556.03,-141.677 79.08,-0.048 135.69,22.772 182.66,55.469 118.09,82.215 174.76,226.885 373.54,227.061 159.24,0.141 227.31,-92.441 308.84,-171.589 60.72,-58.95 128.77,-110.447 247.39,-110.54 237.43,-0.19 272.09,205.601 450.73,265.569 30.42,10.211 64.99,16.193 105.44,16.208 278,0.105 278.09,-281.687 556.14,-281.622 23.34,0.005 44.73,1.997 64.49,5.642 215.63,39.769 237.1,276.259 491.67,276.074 98.86,-0.069 162.61,-35.84 216.27,-81.867 97.17,-83.347 160.95,-200.323 339.94,-200.163 179.15,0.161 242.89,117.668 340.21,201.029 53.6,45.919 117.3,81.478 216,81.409 0.12,-0.079 185.89,-141.302 185.99,-141.399 0.14,-0.13 0.29,134.796 0.56,346.276 0,114.584 0.64,251.929 0.64,402.078 0,275.98 0,597.91 0,904.67 0,638.02 -0.91,1217.43 -2.18,1217.43 -3.05,0 -4575.92,0 -4575.92,0"
       id="path4002" />
    <path
       style="opacity:1;fill:#8deea3;fill-opacity:1;stroke:none;stroke-width:1.86102px;stroke-opacity:1"
       d="m -5971.7,3136.55 c 0,0 -19.15,-618.11 -32.75,-1274.61 -2.59,-246.7 -7.83,-501.02 -10.05,-730.32 -5.41,-382.899 -11.97,-697.031 -11.74,-807.481 -0.45,-27.285 -0.66,-41.988 -0.56,-41.997 277.42,-0.152 277.87,-141.748 554.8,-142.395 78.81,-0.19 135.36,22.383 182.42,54.856 118.34,81.655 175.09,225.936 373.06,226.64 158.57,0.562 226.65,-91.009 308.46,-169.617 60.93,-58.548 128.94,-109.902 247.09,-110.273 236.53,-0.76 271.37,202.757 450.07,262.316 30.42,10.141 64.95,16.107 105.29,16.165 277.36,0.42 277.7,-278.122 555.22,-277.864 23.29,0.02 44.65,2.007 64.4,5.627 215.54,39.498 237.24,273.356 490.9,272.615 98.5,-0.277 162.19,-35.947 216,-81.661 97.46,-82.779 161.28,-198.475 339.53,-197.834 178.4,0.642 242.17,117.831 339.78,200.623 53.76,45.606 117.4,80.78 215.74,80.503 0.47,-0.314 185.25,-140.895 185.65,-141.282 0.54,-0.522 1.15,133.146 2.21,343.184 0,113.803 2.58,251.176 2.58,400.295 0,274.1 0,598.71 0,903.38 0,633.67 -3.63,1209.13 -8.74,1209.13 -12.18,0 -4569.36,0 -4569.36,0"
       id="path4004" />
    <path
       style="opacity:1;fill:#8ceda1;fill-opacity:1;stroke:none;stroke-width:1.86102px;stroke-opacity:1"
       d="m -5971.7,3136.55 c 0,0 -27.11,-619.22 -40.55,-1268.2 0.62,-243.88 -4.56,-496.91 -3.57,-723.59 -2.17,-378.514 -8.65,-685.814 -5.23,-795 -0.33,-26.974 -0.4,-41.514 -0.18,-41.533 276.41,-0.342 277.43,-142.137 552.74,-143.593 78.37,-0.428 134.82,21.733 182.03,53.835 118.76,80.721 175.64,224.352 372.24,225.938 157.48,1.264 225.56,-88.622 307.85,-166.331 61.28,-57.878 129.21,-108.993 246.59,-109.829 235.02,-1.71 270.16,198.019 448.96,256.896 30.43,10.025 64.88,15.964 105.04,16.092 276.29,0.946 277.05,-272.18 553.69,-271.6 23.21,0.046 44.52,2.024 64.25,5.602 215.39,39.047 237.48,268.516 489.63,266.851 97.9,-0.625 161.49,-36.127 215.55,-81.318 97.94,-81.832 161.82,-195.396 338.82,-193.953 177.16,1.444 241,118.101 339.08,199.947 54.01,45.084 117.56,79.615 215.29,78.993 1.07,-0.708 184.18,-140.219 185.08,-141.088 1.22,-1.175 2.61,130.397 4.98,338.032 0,112.501 5.81,249.921 5.81,397.339 0,270.96 0,600.03 0,901.21 0,626.43 -8.16,1195.3 -19.66,1195.3 -27.41,0 -4558.44,0 -4558.44,0"
       id="path4006" />
    <path
       style="opacity:1;fill:#8aeaa0;fill-opacity:1;stroke:none;stroke-width:1.86102px;stroke-opacity:1"
       d="m -5971.7,3136.55 c 0,0 -38.25,-620.76 -51.48,-1259.23 5.13,-239.93 0.03,-491.15 5.51,-714.15 2.38,-372.387 -4,-670.125 3.87,-777.542 -0.13,-26.536 -0.02,-40.849 0.37,-40.883 275,-0.608 276.8,-142.681 549.86,-145.27 77.74,-0.761 134.05,20.824 181.47,52.407 119.35,79.412 176.43,222.135 371.11,224.954 155.94,2.247 224.02,-85.28 306.98,-161.73 61.77,-56.94 129.59,-107.721 245.9,-109.206 232.91,-3.041 268.47,191.383 447.39,249.306 30.45,9.863 64.79,15.763 104.7,15.992 274.78,1.68 276.14,-263.862 551.56,-262.832 23.09,0.082 44.32,2.047 64.03,5.568 215.18,38.413 237.8,261.74 487.85,258.779 97.05,-1.11 160.51,-36.378 214.92,-80.837 98.6,-80.505 162.58,-191.084 337.84,-188.52 175.42,2.567 239.35,118.482 338.09,199.001 54.36,44.353 117.77,77.985 214.67,76.878 1.89,-1.258 182.68,-139.269 184.28,-140.815 2.17,-2.089 4.63,126.549 8.85,330.819 0,110.678 10.33,248.163 10.33,393.191 0,266.57 0,601.89 0,898.19 0,616.28 -14.51,1175.93 -34.95,1175.93 -48.73,0 -4543.15,0 -4543.15,0"
       id="path4008" />
    <path
       style="opacity:1;fill:#88e79e;fill-opacity:1;stroke:none;stroke-width:1.86102px;stroke-opacity:1"
       d="m -5971.7,3136.55 c 0,0 -52.58,-622.75 -65.52,-1247.7 10.91,-234.85 5.92,-483.74 17.17,-702.02 8.22,-364.501 1.98,-649.943 15.57,-755.085 0.12,-25.975 0.46,-39.995 1.07,-40.048 273.2,-0.95 276.01,-143.38 546.17,-147.425 76.94,-1.189 133.05,19.655 180.76,50.568 120.09,77.731 177.42,219.286 369.63,223.691 153.96,3.511 222.07,-80.984 305.88,-155.815 62.39,-55.735 130.08,-106.085 245,-108.406 230.19,-4.751 266.3,182.852 445.39,239.549 30.46,9.654 64.66,15.504 104.26,15.862 272.85,2.626 274.96,-253.167 548.8,-251.558 22.94,0.128 44.09,2.077 63.76,5.523 214.91,37.6 238.22,253.029 485.56,248.402 95.96,-1.734 159.24,-36.701 214.11,-80.218 99.46,-78.8 163.56,-185.542 336.58,-181.535 173.17,4.011 237.22,118.97 336.83,197.784 54.81,43.414 118.04,75.89 213.85,74.161 2.95,-1.966 180.76,-138.051 183.27,-140.465 3.38,-3.266 7.22,121.6 13.82,321.545 0,108.333 16.14,245.902 16.14,387.86 0,260.93 0,604.28 0,894.3 0,603.23 -22.67,1151.03 -54.61,1151.03 -76.13,0 -4523.49,0 -4523.49,0"
       id="path4010" />
    <path
       style="opacity:1;fill:#85e49b;fill-opacity:1;stroke:none;stroke-width:1.86102px;stroke-opacity:1"
       d="m -5971.7,3136.55 c 0,0 -70.08,-625.18 -82.68,-1233.6 17.97,-228.64 13.12,-474.7 31.43,-687.2 15.36,-354.864 9.28,-625.279 29.87,-727.641 0.43,-25.287 1.05,-38.949 1.92,-39.026 270.99,-1.368 275.05,-144.236 541.65,-150.06 75.96,-1.712 131.84,18.226 179.89,48.322 121.01,75.675 178.64,215.803 367.84,222.146 151.54,5.056 219.66,-75.733 304.52,-148.585 63.16,-54.261 130.68,-104.086 243.92,-107.429 226.86,-6.841 263.63,172.427 442.93,227.625 30.48,9.398 64.51,15.188 103.72,15.703 270.48,3.781 273.52,-240.096 545.44,-237.779 22.75,0.184 43.79,2.114 63.42,5.469 214.57,36.605 238.73,242.381 482.76,235.719 94.63,-2.498 157.7,-37.096 213.13,-79.462 100.5,-76.717 164.74,-178.768 335.02,-172.998 170.44,5.776 234.64,119.567 335.29,196.297 55.36,42.266 118.38,73.329 212.87,70.838 4.24,-2.83 178.4,-136.56 182.01,-140.037 4.88,-4.702 10.41,115.552 19.91,310.21 0,105.47 23.24,243.141 23.24,381.338 0,254.03 0,607.2 0,889.56 0,587.27 -32.65,1120.59 -78.64,1120.59 -109.63,0 -4499.46,0 -4499.46,0"
       id="path4012" />
    <path
       style="opacity:1;fill:#81df98;fill-opacity:1;stroke:none;stroke-width:1.86102px;stroke-opacity:1"
       d="m -5971.7,3136.55 c 0,0 -90.77,-628.05 -102.97,-1216.94 26.33,-221.3 21.63,-464 48.28,-669.69 23.8,-343.467 17.92,-596.122 46.78,-695.198 0.78,-24.476 1.75,-37.715 2.93,-37.82 268.38,-1.862 273.9,-145.246 536.3,-153.174 74.81,-2.33 130.42,16.538 178.87,45.668 122.1,73.247 180.07,211.687 365.72,220.32 148.69,6.883 216.82,-69.527 302.92,-140.04 64.06,-52.519 131.38,-101.723 242.62,-106.273 222.94,-9.311 260.5,160.105 440.05,213.531 30.5,9.096 64.32,14.814 103.08,15.515 267.68,5.147 271.81,-224.647 541.45,-221.493 22.54,0.25 43.45,2.156 63.03,5.403 214.18,35.431 239.33,229.798 479.45,220.73 93.07,-3.399 155.88,-37.562 211.96,-78.568 101.74,-74.255 166.15,-170.762 333.2,-162.908 167.2,7.862 231.57,120.272 333.46,194.539 56.02,40.91 118.78,70.303 211.7,66.913 5.78,-3.854 175.63,-134.799 180.54,-139.532 6.64,-6.4 14.16,108.405 27.09,296.814 0,102.084 31.64,239.873 31.64,373.643 0,245.87 0,610.64 0,883.94 0,568.42 -44.44,1084.62 -107.05,1084.62 -149.21,0 -4471.05,0 -4471.05,0"
       id="path4014" />
    <path
       style="opacity:1;fill:#7dda95;fill-opacity:1;stroke:none;stroke-width:1.86102px;stroke-opacity:1"
       d="m -5971.7,3136.55 c 0,0 -114.64,-631.36 -126.37,-1197.72 35.96,-212.83 31.44,-451.66 67.72,-649.47 33.54,-330.329 27.88,-562.492 66.28,-657.777 1.2,-23.539 2.55,-36.291 4.1,-36.428 265.36,-2.431 272.57,-146.411 530.14,-156.766 73.47,-3.044 128.76,14.59 177.67,42.605 123.35,70.443 181.74,206.938 363.29,218.213 145.38,8.99 213.54,-62.366 301.06,-130.182 65.11,-50.509 132.2,-98.996 241.14,-104.939 218.4,-12.161 256.87,145.887 436.7,197.269 30.53,8.749 64.11,14.384 102.35,15.299 264.45,6.722 269.85,-206.822 536.86,-202.703 22.29,0.327 43.04,2.206 62.57,5.329 213.73,34.075 240.03,215.278 475.63,203.435 91.26,-4.44 153.78,-38.1 210.62,-77.537 103.17,-71.414 167.77,-161.524 331.09,-151.266 163.46,10.268 228.03,121.085 331.34,192.51 56.78,39.345 119.25,66.811 210.37,62.383 7.54,-5.033 172.42,-132.767 178.83,-138.948 8.67,-8.359 18.5,100.158 35.39,281.358 0,98.177 41.32,236.105 41.32,364.755 0,236.47 0,614.62 0,877.46 0,546.67 -58.04,1043.12 -139.81,1043.12 -194.9,0 -4438.29,0 -4438.29,0"
       id="path4016" />
    <path
       style="opacity:1;fill:#78d591;fill-opacity:1;stroke:none;stroke-width:1.86102px;stroke-opacity:1"
       d="m -5971.7,3136.55 c 0,0 -141.7,-635.12 -152.9,-1175.94 46.89,-203.23 42.57,-437.67 89.76,-626.56 44.57,-315.43 39.17,-524.369 88.39,-615.358 1.66,-22.477 3.46,-34.677 5.42,-34.85 261.94,-3.077 271.07,-147.732 523.14,-160.838 71.96,-3.852 126.9,12.382 176.34,39.134 124.77,67.267 183.62,201.555 360.51,215.826 141.65,11.377 209.83,-54.251 298.97,-119.009 66.29,-48.231 133.12,-95.907 239.45,-103.428 213.26,-15.392 252.77,129.774 432.91,178.839 30.56,8.354 63.88,13.895 101.51,15.054 260.8,8.507 267.64,-186.621 531.67,-181.408 22,0.414 42.58,2.263 62.05,5.245 213.22,32.538 240.82,198.823 471.3,183.834 89.21,-5.62 151.4,-38.71 209.1,-76.369 104.78,-68.193 169.61,-151.054 328.7,-138.071 159.23,12.995 224.02,122.007 328.95,190.211 57.63,37.57 119.77,62.853 208.84,57.249 9.55,-6.37 168.79,-130.464 176.9,-138.287 10.98,-10.58 23.41,90.811 44.79,263.84 0,93.746 52.3,231.836 52.3,354.686 0,225.8 0,619.13 0,870.12 0,522.02 -73.46,996.08 -176.95,996.08 -246.66,0 -4401.15,0 -4401.15,0"
       id="path4018" />
    <path
       style="opacity:1;fill:#73cf8c;fill-opacity:1;stroke:none;stroke-width:1.86102px;stroke-opacity:1"
       d="m -5971.7,3136.55 c 0,0 -171.94,-639.32 -182.55,-1151.59 59.1,-192.51 55.01,-422.03 114.4,-600.96 56.9,-298.78 51.78,-481.764 113.08,-567.951 2.2,-21.291 4.48,-32.872 6.9,-33.086 258.12,-3.799 269.39,-149.209 515.34,-165.389 70.27,-4.755 124.81,9.914 174.83,35.254 126.35,63.717 185.72,195.54 357.41,213.157 137.48,14.047 205.68,-45.18 296.64,-106.52 67.6,-45.685 134.15,-92.453 237.56,-101.739 207.52,-19.002 248.18,111.765 428.68,158.24 30.59,7.914 63.61,13.35 100.58,14.781 256.7,10.502 265.15,-164.043 525.85,-157.607 21.68,0.51 42.07,2.325 61.47,5.15 212.65,30.821 241.7,180.431 466.46,161.926 86.92,-6.937 148.74,-39.391 207.39,-75.063 106.6,-64.593 171.68,-139.353 326.04,-123.324 154.5,16.043 219.54,123.038 326.28,187.643 58.58,35.587 120.36,58.429 207.14,51.51 11.78,-7.863 164.72,-127.89 174.74,-137.548 13.55,-13.061 28.9,80.365 55.3,244.262 0,88.804 64.56,227.064 64.56,343.434 0,213.88 0,624.17 0,861.91 0,494.47 -90.69,943.51 -218.46,943.51 -304.52,0 -4359.64,0 -4359.64,0"
       id="path4020" />
    <path
       style="opacity:1;fill:#6dc888;fill-opacity:1;stroke:none;stroke-width:1.86102px;stroke-opacity:1"
       d="m -5971.7,3136.55 c 0,0 -205.36,-643.95 -215.32,-1124.68 72.6,-180.66 68.76,-404.75 141.62,-572.66 70.53,-280.38 65.73,-434.68 140.39,-515.555 2.77,-19.98 5.6,-30.879 8.53,-31.138 253.9,-4.597 267.54,-150.841 506.71,-170.418 68.4,-5.754 122.5,7.186 173.17,30.966 128.1,59.793 188.04,188.89 353.99,210.208 132.86,16.996 201.09,-35.155 294.04,-92.718 69.07,-42.872 135.3,-88.637 235.48,-99.873 201.18,-22.992 243.11,91.861 424.01,135.474 30.62,7.426 63.32,12.746 99.54,14.478 252.19,12.708 262.41,-139.089 519.43,-131.301 21.33,0.618 41.51,2.395 60.83,5.046 212.01,28.923 242.68,160.104 461.11,137.713 84.39,-8.394 145.8,-40.145 205.51,-73.619 108.6,-60.616 173.95,-126.42 323.09,-107.026 149.27,19.413 214.59,124.177 323.33,184.803 59.64,33.396 121,53.54 205.25,45.169 14.26,-9.515 160.23,-125.045 172.36,-136.732 16.39,-15.803 34.97,68.82 66.91,222.623 0,83.33 78.12,221.8 78.12,330.99 0,200.72 0,629.75 0,852.84 0,464.02 -109.73,885.41 -264.34,885.41 -368.46,0 -4313.76,0 -4313.76,0"
       id="path4022" />
    <path
       style="opacity:1;fill:#67c082;fill-opacity:1;stroke:none;stroke-width:1.86102px;stroke-opacity:1"
       d="m -5971.7,3136.55 c 0,0 -241.96,-649.03 -251.2,-1095.21 87.37,-167.67 83.81,-385.83 171.43,-541.67 85.46,-260.23 81,-383.1 170.29,-458.16 3.41,-18.55 6.84,-28.7 10.32,-29 249.28,-5.48 265.51,-152.633 497.25,-175.932 66.36,-6.848 119.97,4.199 171.35,26.27 130.03,55.495 190.6,181.612 350.25,206.982 127.8,20.22 196.06,-24.18 291.21,-77.605 70.67,-39.791 136.54,-84.457 233.19,-97.828 194.23,-27.364 237.56,70.061 418.88,110.543 30.67,6.89 63,12.08 98.42,14.14 247.24,15.13 259.4,-111.755 512.4,-102.487 20.93,0.735 40.89,2.471 60.12,4.931 211.32,26.844 243.75,137.846 455.26,111.196 81.61,-9.99 142.57,-40.972 203.45,-72.041 110.78,-56.259 176.44,-112.255 319.85,-89.174 143.54,23.103 209.17,125.425 320.09,181.695 60.8,30.99 121.71,48.18 203.2,38.22 16.97,-11.32 155.31,-121.928 169.74,-135.836 19.51,-18.808 41.62,56.176 79.63,198.926 0,77.34 92.97,216.02 92.97,317.36 0,186.29 0,635.85 0,842.91 0,430.67 -130.59,821.77 -314.58,821.77 -438.51,0 -4263.52,0 -4263.52,0"
       id="path4024" />
    <path
       style="opacity:1;fill:#60b87c;fill-opacity:1;stroke:none;stroke-width:1.86102px;stroke-opacity:1"
       d="m -5971.7,3136.55 c 0,0 -281.75,-654.56 -290.21,-1063.18 103.44,-153.55 100.17,-365.25 203.84,-507.97 101.68,-238.33 97.6,-327.04 202.8,-395.79 4.09,-16.98 8.17,-26.32 12.26,-26.68 244.25,-6.42 263.3,-154.574 486.97,-181.918 64.13,-8.037 117.22,0.952 169.38,21.165 132.11,50.823 193.36,173.693 346.17,203.463 122.3,23.74 190.6,-12.24 288.12,-61.16 72.41,-36.45 137.91,-79.92 230.72,-95.61 186.67,-32.115 231.52,46.36 413.31,83.43 30.71,6.32 62.66,11.37 97.19,13.79 241.86,17.75 256.13,-82.05 504.75,-71.17 20.52,0.86 40.22,2.55 59.37,4.81 210.56,24.58 244.9,113.64 448.88,82.36 78.6,-11.72 139.07,-41.86 201.21,-70.32 113.16,-51.52 179.15,-96.855 316.34,-69.77 137.32,27.12 203.27,126.78 316.58,178.32 62.05,28.38 122.48,42.36 200.95,30.67 19.92,-13.29 149.97,-118.54 166.9,-134.87 22.9,-22.07 48.85,42.43 93.46,173.17 0,70.83 109.11,209.74 109.11,302.55 0,170.61 0,642.48 0,832.11 0,394.42 -153.27,752.6 -369.2,752.6 -514.64,0 -4208.9,0 -4208.9,0"
       id="path4026" />
    <path
       style="opacity:1;fill:#59af76;fill-opacity:1;stroke:none;stroke-width:1.86102px;stroke-opacity:1"
       d="m -5971.7,3136.55 c 0,0 -324.72,-660.52 -332.34,-1028.58 120.79,-138.31 117.85,-343.03 238.84,-471.59 119.21,-214.67 115.53,-266.5 237.9,-328.42 4.84,-15.3 9.62,-23.76 14.37,-24.18 238.82,-7.44 260.91,-156.67 475.87,-188.38 61.72,-9.32 114.25,-2.55 167.24,15.65 134.36,45.78 196.35,165.15 341.77,199.68 116.37,27.53 184.7,0.65 284.8,-43.42 74.28,-32.83 139.37,-75.01 228.04,-93.21 178.51,-37.25 224.99,20.77 407.29,54.16 30.76,5.69 62.28,10.6 95.87,13.4 236.05,20.59 252.6,-49.96 496.49,-37.35 20.06,1 39.49,2.64 58.54,4.67 209.74,22.15 246.16,87.51 442.01,51.24 75.33,-13.6 135.28,-42.84 198.78,-68.46 115.73,-46.41 182.07,-80.24 312.55,-48.82 130.6,31.45 196.91,128.25 312.78,174.66 63.41,25.57 123.31,36.08 198.54,22.52 23.09,-15.41 144.19,-114.88 163.83,-133.81 26.56,-25.6 56.65,27.58 108.38,145.34 0,63.8 126.55,202.96 126.55,286.56 0,153.67 0,649.64 0,820.45 0,355.27 -177.75,677.89 -428.18,677.89 -596.86,0 -4149.92,0 -4149.92,0"
       id="path4028" />
    <path
       style="opacity:1;fill:#51a66f;fill-opacity:1;stroke:none;stroke-width:1.86102px;stroke-opacity:1"
       d="m -5971.7,3136.55 c 0,0 -370.87,-666.92 -377.59,-991.42 139.42,-121.94 136.83,-319.17 276.43,-432.51 138.03,-189.26 134.79,-201.47 275.61,-256.06 5.64,-13.49 11.17,-21.01 16.62,-21.49 232.99,-8.55 258.35,-158.92 463.95,-195.33 59.15,-10.7 111.06,-6.32 164.95,9.73 136.78,40.36 199.56,155.97 337.05,195.61 109.99,31.6 178.36,14.49 281.22,-24.36 76.3,-28.94 140.94,-69.74 225.16,-90.63 169.74,-42.76 217.99,-6.72 400.83,22.72 30.81,5.01 61.88,9.76 94.45,12.98 229.81,23.63 248.8,-15.5 487.61,-1.02 19.58,1.15 38.71,2.74 57.66,4.53 208.87,19.52 247.5,59.43 434.63,17.8 71.83,-15.61 131.22,-43.88 196.18,-66.47 118.49,-40.92 185.21,-62.38 308.47,-26.31 123.38,36.1 190.07,129.82 308.7,170.74 64.87,22.54 124.21,29.33 195.94,13.76 26.52,-17.69 138,-110.96 160.54,-132.69 30.49,-29.38 65.03,11.64 124.42,115.46 0,56.25 145.27,195.68 145.27,269.39 0,135.48 0,657.33 0,807.92 0,313.21 -204.05,597.65 -491.54,597.65 -685.16,0 -4086.56,0 -4086.56,0"
       id="path4030" />
    <path
       style="opacity:1;fill:#489b68;fill-opacity:1;stroke:none;stroke-width:1.86102px;stroke-opacity:1"
       d="m -5971.7,3136.55 c 0,0 -420.21,-673.77 -425.97,-951.69 159.35,-104.44 157.13,-293.67 316.63,-390.74 158.15,-162.1 155.37,-131.96 315.91,-178.72 6.5,-11.55 12.83,-18.06 19.03,-18.6 226.76,-9.73 255.61,-161.34 451.2,-202.76 56.4,-12.17 107.66,-10.34 162.5,3.4 139.37,34.57 203,146.15 332,191.25 103.18,35.96 171.59,29.29 277.4,-3.98 78.46,-24.79 142.63,-64.11 222.08,-87.88 160.38,-48.64 210.51,-36.09 393.93,-10.88 30.86,4.29 61.45,8.87 92.93,12.53 223.14,26.89 244.75,21.33 478.13,37.81 19.05,1.31 37.88,2.84 56.71,4.38 207.94,16.72 248.94,29.43 426.73,-17.95 68.1,-17.76 126.88,-44.99 193.41,-64.34 121.44,-35.04 188.57,-43.28 304.11,-2.24 115.66,41.07 182.77,131.5 304.34,166.55 66.44,19.3 125.16,22.1 193.16,4.39 30.17,-20.13 131.37,-106.75 157.02,-131.48 34.69,-33.43 73.99,-5.4 141.56,83.52 0,48.17 165.29,187.89 165.29,251.02 0,116.04 0,665.56 0,794.53 0,268.27 -232.17,511.88 -559.26,511.88 -779.57,0 -4018.84,0 -4018.84,0"
       id="path4032" />
    <path
       style="opacity:1;fill:#3f9061;fill-opacity:1;stroke:none;stroke-width:1.86102px;stroke-opacity:1"
       d="m -5971.7,3136.55 c 0,0 -472.73,-681.06 -477.46,-909.41 180.55,-85.81 178.73,-266.51 359.4,-346.26 179.57,-133.19 177.29,-57.97 358.82,-96.38 7.41,-9.49 14.6,-14.93 21.6,-15.55 220.12,-10.98 252.7,-163.89 437.63,-210.65 53.46,-13.75 104.03,-14.64 159.9,-3.34 142.12,28.4 206.64,135.7 326.62,186.61 95.92,40.6 164.38,45.05 273.33,17.71 80.75,-20.37 144.42,-58.11 218.81,-84.95 150.4,-54.91 202.53,-67.37 386.58,-46.65 30.91,3.52 60.98,7.92 91.3,12.05 216.04,30.35 240.44,60.55 468.04,79.15 18.5,1.48 36.99,2.95 55.7,4.21 206.94,13.74 250.48,-2.51 418.33,-55.99 64.11,-20.05 122.25,-46.17 190.45,-62.07 124.58,-28.8 192.14,-22.96 299.48,23.36 107.43,46.37 174.98,133.29 299.69,162.09 68.1,15.86 126.18,14.43 190.21,-5.57 34.06,-22.72 124.31,-102.28 153.27,-130.2 39.15,-37.74 83.52,-23.54 159.81,49.51 0,39.59 186.59,179.61 186.59,231.48 0,95.34 0,674.31 0,780.28 0,220.41 -262.1,420.57 -631.35,420.57 -880.06,0 -3946.75,0 -3946.75,0"
       id="path4034" />
    <path
       style="opacity:1;fill:#368559;fill-opacity:1;stroke:none;stroke-width:1.86102px;stroke-opacity:1"
       d="m -5971.7,3136.55 c 0,0 -528.43,-688.79 -532.07,-864.56 203.04,-66.05 201.64,-237.71 404.77,-299.1 202.29,-102.51 200.53,20.52 404.33,-9.05 8.37,-7.31 16.47,-11.6 24.31,-12.3 213.1,-12.31 249.61,-166.61 423.25,-219.04 50.35,-15.4 100.18,-19.18 157.13,-10.48 145.04,21.86 210.52,124.62 320.92,181.7 88.22,45.51 156.73,61.75 269.01,40.71 83.19,-15.68 146.32,-51.75 215.34,-81.83 139.83,-61.57 194.08,-100.55 378.78,-84.61 30.98,2.72 60.5,6.92 89.59,11.55 208.5,34.03 235.86,102.14 457.33,123 17.91,1.65 36.05,3.06 54.63,4.03 205.89,10.58 252.1,-36.39 409.42,-96.34 59.89,-22.48 117.35,-47.43 187.31,-59.67 127.91,-22.16 195.93,-1.4 294.56,50.53 98.72,51.98 166.73,135.19 294.78,157.35 69.85,12.22 127.25,6.28 187.06,-16.13 38.19,-25.48 116.83,-97.55 149.29,-128.84 43.91,-42.32 93.65,-42.79 179.17,13.45 0,30.46 209.19,170.81 209.19,210.74 0,73.38 0,683.59 0,765.16 0,169.66 -293.84,323.73 -707.82,323.73 -986.64,0 -3870.28,0 -3870.28,0"
       id="path4036" />
    <path
       style="opacity:1;fill:#2b7950;fill-opacity:1;stroke:none;stroke-width:1.86102px;stroke-opacity:1"
       d="m -5971.7,3136.55 c 0,0 -587.32,-696.96 -589.81,-817.15 226.82,-45.16 225.86,-207.26 452.74,-249.24 226.3,-70.09 225.1,103.49 452.43,83.27 9.4,-5 18.46,-8.09 27.2,-8.86 205.65,-13.72 246.34,-169.5 408.04,-227.9 47.05,-17.17 96.11,-23.99 154.2,-18.04 148.13,14.94 214.61,112.9 314.89,176.5 80.09,50.7 148.65,79.42 264.45,65.03 85.76,-10.72 148.33,-45.02 211.67,-78.55 128.64,-68.59 185.14,-135.61 370.53,-124.71 31.05,1.86 59.99,5.85 87.78,11.02 200.54,37.91 231.03,146.1 446.01,169.34 17.29,1.84 35.06,3.19 53.5,3.85 204.77,7.23 253.82,-72.21 400,-139.01 55.43,-25.04 112.16,-48.75 183.99,-57.12 131.43,-15.16 199.94,21.38 289.36,79.25 89.51,57.91 158.01,137.19 289.57,152.35 71.72,8.35 128.4,-2.34 183.76,-27.31 42.54,-28.39 108.91,-92.53 145.09,-127.4 48.91,-47.15 104.33,-63.13 199.62,-24.68 0,20.83 233.08,161.52 233.08,188.82 0,50.18 0,693.41 0,749.19 0,116 -327.39,221.35 -788.65,221.35 -1099.31,0 -3789.45,0 -3789.45,0"
       id="path4038" />
    <path
       style="opacity:1;fill:#216c47;fill-opacity:1;stroke:none;stroke-width:1.86102px;stroke-opacity:1"
       d="m -5971.7,3136.55 c 0,0 -649.38,-705.58 -650.66,-767.17 251.88,-23.15 251.38,-175.17 503.29,-196.69 251.62,-35.92 251,190.94 503.14,180.58 10.48,-2.56 20.54,-4.39 30.23,-5.24 197.81,-15.2 242.9,-172.53 392,-237.25 43.59,-19.02 91.83,-29.05 151.12,-26 151.39,7.66 218.94,100.55 308.54,171.02 71.51,56.19 140.13,98.04 259.64,90.67 88.48,-5.5 150.45,-37.94 207.8,-75.08 116.86,-76.01 175.72,-172.58 361.85,-166.99 31.11,0.95 59.44,4.73 85.86,10.45 192.15,42.01 225.93,192.45 434.08,218.2 16.63,2.04 34.01,3.32 52.31,3.66 203.6,3.7 255.63,-109.96 390.07,-183.98 50.72,-27.75 106.7,-50.16 180.49,-54.44 135.15,-7.77 204.16,45.4 283.89,109.51 79.8,64.18 148.81,139.31 284.08,147.08 73.68,4.28 129.6,-11.41 180.26,-39.09 47.14,-31.45 100.58,-87.24 140.66,-125.88 54.2,-52.24 115.6,-84.57 221.19,-64.87 0,10.68 258.26,151.74 258.26,165.73 0,25.71 0,703.75 0,732.34 0,59.45 -362.76,113.44 -873.85,113.44 -1218.07,0 -3704.25,0 -3704.25,0"
       id="path4040" />
    <path
       style="opacity:1;fill:#165f3e;fill-opacity:1;stroke:none;stroke-width:1.86102px;stroke-opacity:1"
       d="m -5971.7,3136.55 -714.64,-714.63 c 278.23,0 278.23,-141.44 556.45,-141.44 278.22,0 278.22,282.88 556.44,282.88 11.61,0 22.74,-0.5 33.42,-1.44 189.57,-16.76 239.28,-175.71 375.15,-247.06 39.94,-20.98 87.32,-34.38 147.88,-34.38 154.8,0 223.47,87.57 301.86,165.27 62.49,61.94 131.16,117.61 254.58,117.61 91.33,0 152.68,-30.48 203.73,-71.43 104.47,-83.8 165.82,-211.45 352.72,-211.45 31.18,0 58.87,3.55 83.84,9.86 183.34,46.32 220.57,241.18 421.55,269.56 15.93,2.25 32.9,3.46 51.05,3.46 202.36,0 257.54,-149.65 379.63,-231.25 45.78,-30.6 100.95,-51.63 176.82,-51.63 139.04,0 208.6,70.65 278.12,141.34 69.59,70.75 139.15,141.54 278.32,141.54 75.74,0 130.86,-20.97 176.59,-51.48 51.97,-34.68 91.81,-81.69 135.99,-124.28 59.76,-57.6 127.46,-107.12 243.87,-107.12 l 284.73,141.44 v 714.63 c 0,0 -399.95,0 -963.42,0 -1342.92,0 -3614.68,0 -3614.68,0"
       id="path4042" />
  </g>
</svg>
