<?xml version="1.0" encoding="UTF-8" standalone="no"?>
<svg
   id="svg"
   class="path"
   version="1.1"
   sodipodi:docname="waves.svg"
   width="4096"
   height="2160"
   inkscape:version="1.1.2 (0a00cf5339, 2022-02-04)"
   xmlns:inkscape="http://www.inkscape.org/namespaces/inkscape"
   xmlns:sodipodi="http://sodipodi.sourceforge.net/DTD/sodipodi-0.dtd"
   xmlns:xlink="http://www.w3.org/1999/xlink"
   xmlns="http://www.w3.org/2000/svg"
   xmlns:svg="http://www.w3.org/2000/svg">
  <defs
     id="defs43">
    <linearGradient
       inkscape:collect="always"
       id="linearGradient1143">
      <stop
         style="stop-color:#57e389;stop-opacity:1"
         offset="0"
         id="stop1139" />
      <stop
         style="stop-color:#3584e4;stop-opacity:1"
         offset="1"
         id="stop1141" />
    </linearGradient>
    <linearGradient
       inkscape:collect="always"
       xlink:href="#linearGradient1143"
       id="linearGradient1339"
       x1="2368.0308"
       y1="2100.9631"
       x2="2368.0308"
       y2="206.44865"
       gradientUnits="userSpaceOnUse"
       gradientTransform="translate(0,-2187.9812)" />
  </defs>
  <sodipodi:namedview
     id="namedview41"
     pagecolor="#505050"
     bordercolor="#ffffff"
     borderopacity="1"
     inkscape:pageshadow="0"
     inkscape:pageopacity="0"
     inkscape:pagecheckerboard="1"
     showgrid="false"
     fit-margin-top="0"
     fit-margin-left="0"
     fit-margin-right="0"
     fit-margin-bottom="0"
     inkscape:current-layer="layer2"
     width="4096px"
     borderlayer="true"
     inkscape:showpageshadow="false" />
  <g
     inkscape:groupmode="layer"
     id="layer1"
     inkscape:label="art">
    <g
       id="g43"
       transform="translate(9.487348,-153.00304)">
      <path
         fill="#ccd36a"
         stroke="#ccd36a"
         d="M -49.693205,2650.4628 V -455.87638 c 35.079375,0 315.714375,-108.86703 350.793745,-108.86703 35.07938,0 315.71438,217.73405 350.79375,217.73405 35.07938,0 315.71438,-217.73405 350.79371,-217.73405 35.0794,0 315.7144,217.73405 350.7938,217.73405 35.0794,0 315.7144,-217.73405 350.7937,-217.73405 35.0794,0 315.7144,217.73405 350.7938,217.73405 35.0794,0 315.7144,-217.73405 350.7937,-217.73405 35.0794,0 315.7144,217.73405 350.7938,217.73405 35.0794,0 315.7144,-217.73405 350.7938,-217.73405 35.0793,0 315.7143,217.73405 350.7937,217.73405 35.0794,0 315.7144,-217.73405 350.7937,-217.73405 35.0794,0 315.7144,217.73405 350.7938,217.73405 l -29.0312,-108.86702 V 2650.4628 Z"
         id="path2"
         style="stroke-width:2.41927" />
      <path
         fill="#b0ca6a"
         stroke="#b0ca6a"
         d="m -49.693205,2650.4628 2.419267,-2936.99047 c 35.079375,0 315.714368,-108.86703 350.793748,-108.86703 35.07938,0 315.71438,217.73405 350.79375,217.73405 35.07938,0 315.71437,-217.73405 350.79374,-217.73405 35.0794,0 315.7144,217.73405 350.7938,217.73405 35.0793,0 315.7143,-217.73405 350.7937,-217.73405 35.0794,0 315.7144,217.73405 350.7938,217.73405 35.0793,0 315.7143,-217.73405 350.7937,-217.73405 35.0794,0 315.7144,217.73405 350.7938,217.73405 35.0793,0 315.7143,-217.73405 350.7937,-217.73405 35.0794,0 315.7144,217.73405 350.7938,217.73405 35.0793,0 315.7143,-217.73405 350.7937,-217.73405 35.0794,0 315.7144,217.73405 350.7938,217.73405 l -31.4505,-108.86702 V 2650.4628 Z"
         id="path4"
         style="stroke-width:2.41927" />
      <path
         fill="#96c16b"
         stroke="#96c16b"
         d="m -49.693205,2650.4628 4.838535,-2767.64177 c 35.0793743,0 315.71437,-108.86703 350.79375,-108.86703 35.07938,0 315.71437,217.7340517 350.79375,217.7340517 35.07937,0 315.71437,-217.7340517 350.79377,-217.7340517 35.0794,0 315.7143,217.7340517 350.7937,217.7340517 35.0794,0 315.7144,-217.7340517 350.7938,-217.7340517 35.0793,0 315.7143,217.7340517 350.7937,217.7340517 35.0794,0 315.7144,-217.7340517 350.7938,-217.7340517 35.0793,0 315.7144,217.7340517 350.7937,217.7340517 35.0794,0 315.7144,-217.7340517 350.7938,-217.7340517 35.0794,0 315.7144,217.7340517 350.7937,217.7340517 35.0794,0 315.7144,-217.7340517 350.7938,-217.7340517 35.0794,0 315.7144,217.7340517 350.7937,217.7340517 L 4130.8006,-117.17897 V 2650.4628 Z"
         id="path6"
         style="stroke-width:2.41927" />
      <path
         fill="#7cb76c"
         stroke="#7cb76c"
         d="M -49.693205,2650.4628 -42.435403,54.589002 c 35.0793745,0 315.714373,-108.86702 350.793743,-108.86702 35.07938,0 315.71438,217.734048 350.79376,217.734048 35.07937,0 315.71437,-217.734048 350.7937,-217.734048 35.0794,0 315.7144,217.734048 350.7938,217.734048 35.0794,0 315.7144,-217.734048 350.7937,-217.734048 35.0794,0 315.7144,217.734048 350.7938,217.734048 35.0794,0 315.7144,-217.734048 350.7937,-217.734048 35.0794,0 315.7144,217.734048 350.7938,217.734048 35.0794,0 315.7144,-217.734048 350.7938,-217.734048 35.0793,0 315.7143,217.734048 350.7937,217.734048 35.0794,0 315.7144,-217.734048 350.7937,-217.734048 35.0794,0 315.7144,217.734048 350.7938,217.734048 L 4130.8006,54.589002 V 2650.4628 Z"
         id="path8"
         style="stroke-width:2.41927" />
      <path
         fill="#64ac6e"
         stroke="#64ac6e"
         d="m -49.693205,2650.4628 9.677069,-2426.52509 c 35.0793747,0 315.714376,-108.86703 350.793746,-108.86703 35.07938,0 315.71438,217.73405 350.79375,217.73405 35.07938,0 315.71438,-217.73405 350.79374,-217.73405 35.0794,0 315.7144,217.73405 350.7938,217.73405 35.0793,0 315.7143,-217.73405 350.7937,-217.73405 35.0794,0 315.7144,217.73405 350.7938,217.73405 35.0793,0 315.7143,-217.73405 350.7937,-217.73405 35.0794,0 315.7144,217.73405 350.7938,217.73405 35.0793,0 315.7143,-217.73405 350.7937,-217.73405 35.0794,0 315.7144,217.73405 350.7938,217.73405 35.0793,0 315.7143,-217.73405 350.7937,-217.73405 35.0794,0 315.7144,217.73405 350.7938,217.73405 L 4130.8006,223.93771 V 2650.4628 Z"
         id="path10"
         style="stroke-width:2.41927" />
      <path
         fill="#4ca170"
         stroke="#4ca170"
         d="M -49.693205,2650.4628 -37.596869,393.28641 c 35.0793749,0 315.714369,-108.86702 350.793749,-108.86702 35.07938,0 315.71438,217.73405 350.79375,217.73405 35.07938,0 315.71437,-217.73405 350.79377,-217.73405 35.0794,0 315.7144,217.73405 350.7937,217.73405 35.0794,0 315.7144,-217.73405 350.7938,-217.73405 35.0793,0 315.7143,217.73405 350.7937,217.73405 35.0794,0 315.7144,-217.73405 350.7938,-217.73405 35.0793,0 315.7144,217.73405 350.7937,217.73405 35.0794,0 315.7144,-217.73405 350.7938,-217.73405 35.0794,0 315.7144,217.73405 350.7937,217.73405 35.0794,0 315.7144,-217.73405 350.7938,-217.73405 35.0794,0 315.7144,217.73405 350.7937,217.73405 L 4130.8006,393.28641 V 2650.4628 Z"
         id="path12"
         style="stroke-width:2.41927" />
      <path
         fill="#339571"
         stroke="#339571"
         d="M -49.693205,2650.4628 -35.177602,565.05435 c 35.07937517,0 315.714372,-108.86699 350.793752,-108.86699 35.07938,0 315.71437,217.73409 350.79375,217.73409 35.07937,0 315.71437,-217.73409 350.7937,-217.73409 35.0794,0 315.7144,217.73409 350.7938,217.73409 35.0794,0 315.7144,-217.73409 350.7937,-217.73409 35.0794,0 315.7144,217.73409 350.7938,217.73409 35.0794,0 315.7144,-217.73409 350.7937,-217.73409 35.0794,0 315.7144,217.73409 350.7938,217.73409 35.0794,0 315.7144,-217.73409 350.7938,-217.73409 35.0793,0 315.7143,217.73409 350.7937,217.73409 35.0794,0 315.7144,-217.73409 350.7937,-217.73409 35.0794,0 315.7144,217.73409 350.7938,217.73409 l -43.5468,-108.8671 V 2650.4628 Z"
         id="path14"
         style="stroke-width:2.41927" />
      <path
         fill="#168a71"
         stroke="#168a71"
         d="M -49.693205,2650.4628 -32.758334,734.40305 c 35.0793744,0 315.714374,-108.867 350.793754,-108.867 35.07937,0 315.71437,217.7341 350.79375,217.7341 35.07937,0 315.71437,-217.7341 350.79373,-217.7341 35.0794,0 315.7144,217.7341 350.7938,217.7341 35.0793,0 315.7143,-217.7341 350.7937,-217.7341 35.0794,0 315.7144,217.7341 350.7938,217.7341 35.0793,0 315.7143,-217.7341 350.7937,-217.7341 35.0794,0 315.7144,217.7341 350.7938,217.7341 35.0793,0 315.7143,-217.7341 350.7937,-217.7341 35.0794,0 315.7144,217.7341 350.7938,217.7341 35.0793,0 315.7143,-217.7341 350.7937,-217.7341 35.0794,0 315.7144,217.7341 350.7938,217.7341 l -45.9661,-108.8671 V 2650.4628 Z"
         id="path16"
         style="stroke-width:2.41927" />
      <path
         fill="#007e70"
         stroke="#007e70"
         d="M -49.693205,2650.4628 -30.339067,903.75175 c 35.0793746,0 315.714377,-108.867 350.793757,-108.867 35.07937,0 315.71437,217.73415 350.79374,217.73415 35.07938,0 315.71438,-217.73415 350.79377,-217.73415 35.0794,0 315.7144,217.73415 350.7937,217.73415 35.0794,0 315.7144,-217.73415 350.7938,-217.73415 35.0793,0 315.7143,217.73415 350.7937,217.73415 35.0794,0 315.7144,-217.73415 350.7938,-217.73415 35.0793,0 315.7144,217.73415 350.7937,217.73415 35.0794,0 315.7144,-217.73415 350.7938,-217.73415 35.0794,0 315.7144,217.73415 350.7937,217.73415 35.0794,0 315.7144,-217.73415 350.7938,-217.73415 35.0794,0 315.7144,217.73415 350.7937,217.73415 L 4130.8006,903.75175 V 2650.4628 Z"
         id="path18"
         style="stroke-width:2.41927" />
      <path
         fill="#00726d"
         stroke="#00726d"
         d="M -49.693205,2650.4628 -27.9198,1075.5198 c 35.0793748,0 315.71437,-108.86705 350.79375,-108.86705 35.07938,0 315.71437,217.73405 350.79375,217.73405 35.07937,0 315.71437,-217.73405 350.7937,-217.73405 35.0794,0 315.7144,217.73405 350.7938,217.73405 35.0794,0 315.7144,-217.73405 350.7937,-217.73405 35.0794,0 315.7144,217.73405 350.7938,217.73405 35.0794,0 315.7144,-217.73405 350.7937,-217.73405 35.0794,0 315.7144,217.73405 350.7938,217.73405 35.0794,0 315.7144,-217.73405 350.7938,-217.73405 35.0793,0 315.7143,217.73405 350.7937,217.73405 35.0794,0 315.7144,-217.73405 350.7938,-217.73405 35.0793,0 315.7143,217.73405 350.7937,217.73405 l -50.8046,-108.867 v 1574.943 z"
         id="path20"
         style="stroke-width:2.41927" />
      <path
         fill="#006569"
         stroke="#006569"
         d="m -49.693205,2650.4628 24.192672,-1405.5943 c 35.0793751,0 315.714373,-108.867 350.793753,-108.867 35.07937,0 315.71437,217.7341 350.79375,217.7341 35.07937,0 315.71437,-217.7341 350.79373,-217.7341 35.0794,0 315.7144,217.7341 350.7938,217.7341 35.0793,0 315.7143,-217.7341 350.7937,-217.7341 35.0794,0 315.7144,217.7341 350.7938,217.7341 35.0793,0 315.7143,-217.7341 350.7937,-217.7341 35.0794,0 315.7144,217.7341 350.7938,217.7341 35.0794,0 315.7143,-217.7341 350.7937,-217.7341 35.0794,0 315.7144,217.7341 350.7938,217.7341 35.0793,0 315.7143,-217.7341 350.7937,-217.7341 35.0794,0 315.7144,217.7341 350.7938,217.7341 l -53.2239,-108.8671 v 1405.5943 z"
         id="path22"
         style="stroke-width:2.41927" />
      <path
         fill="#005963"
         stroke="#005963"
         d="m -49.693205,2650.4628 26.61194,-1236.2456 c 35.079374,0 315.714375,-108.867 350.793755,-108.867 35.07937,0 315.71437,217.7341 350.79374,217.7341 35.07938,0 315.71438,-217.7341 350.79377,-217.7341 35.0794,0 315.7144,217.7341 350.7937,217.7341 35.0794,0 315.7144,-217.7341 350.7938,-217.7341 35.0794,0 315.7143,217.7341 350.7937,217.7341 35.0794,0 315.7144,-217.7341 350.7938,-217.7341 35.0793,0 315.7144,217.7341 350.7937,217.7341 35.0794,0 315.7144,-217.7341 350.7938,-217.7341 35.0794,0 315.7144,217.7341 350.7937,217.7341 35.0794,0 315.7144,-217.7341 350.7938,-217.7341 35.0794,0 315.7144,217.7341 350.7937,217.7341 l -55.6431,-108.8671 v 1236.2456 z"
         id="path24"
         style="stroke-width:2.41927" />
      <path
         fill="#004e5c"
         stroke="#004e5c"
         d="m -49.693205,2650.4628 29.031207,-1064.4776 c 35.079375,0 315.714368,-108.867 350.793748,-108.867 35.07938,0 315.71438,217.734 350.79375,217.734 35.07938,0 315.71437,-217.734 350.7937,-217.734 35.0794,0 315.7144,217.734 350.7938,217.734 35.0794,0 315.7144,-217.734 350.7937,-217.734 35.0794,0 315.7144,217.734 350.7938,217.734 35.0794,0 315.7144,-217.734 350.7937,-217.734 35.0794,0 315.7144,217.734 350.7938,217.734 35.0794,0 315.7144,-217.734 350.7938,-217.734 35.0793,0 315.7143,217.734 350.7937,217.734 35.0794,0 315.7144,-217.734 350.7938,-217.734 35.0793,0 315.7143,217.734 350.7937,217.734 l -58.0624,-108.867 v 1064.4776 z"
         id="path26"
         style="stroke-width:2.41927" />
      <path
         fill="#004253"
         stroke="#004253"
         d="m -49.693205,2650.4628 31.450474,-895.1289 c 35.079375,0 315.714371,-108.867 350.793751,-108.867 35.07938,0 315.71437,217.734 350.79375,217.734 35.07937,0 315.71437,-217.734 350.79373,-217.734 35.0794,0 315.7144,217.734 350.7938,217.734 35.0793,0 315.7143,-217.734 350.7937,-217.734 35.0794,0 315.7144,217.734 350.7938,217.734 35.0793,0 315.7143,-217.734 350.7937,-217.734 35.0794,0 315.7144,217.734 350.7938,217.734 35.0794,0 315.7143,-217.734 350.7937,-217.734 35.0794,0 315.7144,217.734 350.7938,217.734 35.0793,0 315.7143,-217.734 350.7937,-217.734 35.0794,0 315.7144,217.734 350.7938,217.734 l -60.4817,-108.867 v 895.1289 z"
         id="path28"
         style="stroke-width:2.41927" />
      <path
         fill="#003649"
         stroke="#003649"
         d="m -49.693205,2650.4628 33.869741,-725.7802 c 35.079375,0 315.714374,-108.867 350.793754,-108.867 35.07937,0 315.71437,217.734 350.79375,217.734 35.07937,0 315.71436,-217.734 350.79376,-217.734 35.0794,0 315.7144,217.734 350.7937,217.734 35.0794,0 315.7144,-217.734 350.7938,-217.734 35.0794,0 315.7144,217.734 350.7937,217.734 35.0794,0 315.7144,-217.734 350.7938,-217.734 35.0793,0 315.7144,217.734 350.7937,217.734 35.0794,0 315.7144,-217.734 350.7938,-217.734 35.0794,0 315.7144,217.734 350.7937,217.734 35.0794,0 315.7144,-217.734 350.7938,-217.734 35.0794,0 315.7144,217.734 350.7937,217.734 l -62.9009,-108.867 v 725.7802 z"
         id="path30"
         style="stroke-width:2.41927" />
      <path
         fill="#002b3e"
         stroke="#002b3e"
         d="m -49.693205,2650.4628 36.289008,-554.0122 c 35.079375,0 315.714377,-108.867 350.793757,-108.867 35.07937,0 315.71437,217.734 350.79374,217.734 35.07938,0 315.7144,-217.734 350.7938,-217.734 35.0793,0 315.7143,217.734 350.7937,217.734 35.0794,0 315.7144,-217.734 350.7937,-217.734 35.0794,0 315.7144,217.734 350.7938,217.734 35.0794,0 315.7144,-217.734 350.7937,-217.734 35.0794,0 315.7144,217.734 350.7938,217.734 35.0794,0 315.7144,-217.734 350.7938,-217.734 35.0793,0 315.7143,217.734 350.7937,217.734 35.0794,0 315.7144,-217.734 350.7938,-217.734 35.0793,0 315.7143,217.734 350.7937,217.734 l -65.3202,-108.867 v 554.0122 z"
         id="path32"
         style="stroke-width:2.41927" />
      <path
         fill="#032132"
         stroke="#032132"
         d="m -49.693205,2650.4628 38.708276,-384.6635 c 35.079374,0 315.714369,-108.8671 350.793749,-108.8671 35.07938,0 315.71438,217.7341 350.79375,217.7341 35.07938,0 315.71433,-217.7341 350.79373,-217.7341 35.0794,0 315.7144,217.7341 350.7938,217.7341 35.0793,0 315.7143,-217.7341 350.7937,-217.7341 35.0794,0 315.7144,217.7341 350.7938,217.7341 35.0793,0 315.7143,-217.7341 350.7937,-217.7341 35.0794,0 315.7144,217.7341 350.7938,217.7341 35.0794,0 315.7144,-217.7341 350.7937,-217.7341 35.0794,0 315.7144,217.7341 350.7938,217.7341 35.0793,0 315.7143,-217.7341 350.7937,-217.7341 35.0794,0 315.7144,217.7341 350.7938,217.7341 l -67.7395,-108.867 v 384.6635 z"
         id="path34"
         style="stroke-width:2.41927" />
      <path
         fill="#051726"
         stroke="#051726"
         d="M -49.693205,2650.4628 -8.5656621,2435.148 c 35.0793751,0 315.7143721,-108.867 350.7937521,-108.867 35.07937,0 315.71437,217.734 350.79375,217.734 35.07937,0 315.71436,-217.734 350.79376,-217.734 35.0794,0 315.7144,217.734 350.7937,217.734 35.0794,0 315.7144,-217.734 350.7938,-217.734 35.0794,0 315.7144,217.734 350.7937,217.734 35.0794,0 315.7144,-217.734 350.7938,-217.734 35.0793,0 315.7144,217.734 350.7937,217.734 35.0794,0 315.7144,-217.734 350.7938,-217.734 35.0794,0 315.7144,217.734 350.7937,217.734 35.0794,0 315.7144,-217.734 350.7938,-217.734 35.0794,0 315.7144,217.734 350.7937,217.734 l -70.1587,-108.867 v 215.3148 z"
         id="path36"
         style="stroke-width:2.41927" />
      <path
         fill="#000a1a"
         stroke="#000a1a"
         d="m -49.693205,2650.4628 43.5468101,-43.5469 c 35.0793749,0 315.7143749,-108.867 350.7937549,-108.867 35.07937,0 315.71437,217.7341 350.79374,217.7341 35.07938,0 315.7144,-217.7341 350.7938,-217.7341 35.0793,0 315.7143,217.7341 350.7937,217.7341 35.0794,0 315.7144,-217.7341 350.7937,-217.7341 35.0794,0 315.7144,217.7341 350.7938,217.7341 35.0794,0 315.7144,-217.7341 350.7937,-217.7341 35.0794,0 315.7144,217.7341 350.7938,217.7341 35.0794,0 315.7144,-217.7341 350.7938,-217.7341 35.0793,0 315.7143,217.7341 350.7937,217.7341 35.0794,0 315.7144,-217.7341 350.7938,-217.7341 35.0793,0 315.7143,217.7341 350.7937,217.7341 l -72.578,-108.8671 v 43.5469 z"
         id="path38"
         style="stroke-width:2.41927" />
    </g>
  </g>
  <g
     inkscape:groupmode="layer"
     id="layer2"
     inkscape:label="overlay"
     style="mix-blend-mode:hard-light">
    <rect
       style="mix-blend-mode:screen;fill:url(#linearGradient1339);fill-opacity:1;stroke:none;stroke-width:2;stroke-linecap:round;-inkscape-stroke:none;stop-color:#000000"
       id="rect270"
       width="4302.4902"
       height="2384.8093"
       x="-32.948055"
       y="-2286.3953"
       transform="scale(1,-1)" />
  </g>
</svg>
